<svg width="376" height="376" viewBox="0 0 376 376" fill="none" xmlns="http://www.w3.org/2000/svg">
<g clip-path="url(#clip0_57_983)">
<path d="M145.464 159.148C159.23 156.167 180.36 152.551 189.038 152.174C189.038 280.263 193.189 536 189.416 536C184.51 536 175.832 533.36 159.984 527.106C152.914 524.315 149.797 521.289 133.949 515.254C126.065 512.252 120.436 510.728 111.31 510.728C107.537 510.728 103.009 509.974 96.5944 511.86C83.7654 515.632 79.0552 517.481 60.5664 510.692C42.0776 503.902 15.6652 485.42 6.98675 467.692C-1.69165 449.964 -0.559687 429.595 1.32692 409.604C3.21353 389.613 18.3064 368.113 22.8343 359.438C27.3621 350.762 51.1334 319.832 54.5293 314.174C56.258 311.294 58.4858 305.105 60.2989 299.494C62.0809 293.979 63.1896 288.283 63.9413 282.536C65.6313 269.616 68.0396 252.063 69.2449 246.28C70.7541 239.038 76.1624 223.397 78.6779 216.481L71.9131 209.719C67.6373 205.445 63.6884 200.706 61.8323 194.952C57.8851 182.716 57.6574 164.982 76.0366 154.244C99.2796 140.666 117.165 156.633 123.202 166.315C127.352 165.183 137.246 160.928 145.464 159.148Z" fill="url(#paint0_linear_57_983)"/>
<path d="M232.059 159.148C218.438 156.167 197.529 152.551 188.941 152.174C188.941 280.263 184.834 536 188.568 536C193.422 536 202.009 533.36 217.691 527.106C224.687 524.315 227.772 521.289 243.453 515.254C251.255 512.252 256.825 510.728 265.856 510.728C269.589 510.728 274.07 509.974 280.417 511.86C293.112 515.632 297.773 517.481 316.068 510.692C334.363 503.902 360.499 485.42 369.086 467.692C377.674 449.964 376.554 429.595 374.687 409.604C372.82 389.613 357.885 368.113 353.405 359.438C348.924 350.762 325.402 319.832 322.042 314.174C320.324 311.282 318.108 305.051 316.309 299.421C314.563 293.953 313.475 288.31 312.739 282.618C311.066 269.69 308.675 252.075 307.48 246.28C305.987 239.038 300.635 223.397 298.146 216.481L304.824 209.735C309.066 205.45 312.978 200.705 314.812 194.962C318.721 182.725 318.951 164.985 300.76 154.244C277.76 140.666 260.062 156.633 254.088 166.315C249.981 165.183 240.191 160.928 232.059 159.148Z" fill="url(#paint1_linear_57_983)"/>
<circle cx="144.434" cy="213.434" r="8.43436" fill="#040603"/>
<circle cx="229.481" cy="213.434" r="8.43436" fill="#040603"/>
<path d="M203.139 209.201C215.918 218.214 223.193 237.36 226.553 252.208C228.205 263.037 227.478 272.016 222.336 281.728C214.886 290.789 205.753 296.59 194.002 298.465C182.223 298.978 169.907 297.741 160.572 289.679C159.756 288.87 158.95 288.05 158.156 287.219C157.718 286.822 157.281 286.424 156.83 286.014C153.819 283.23 151.955 280.469 150.425 276.676C150.058 275.842 149.691 275.007 149.313 274.148C148.026 270.669 147.968 267.351 148.008 263.673C148.014 262.992 148.02 262.311 148.026 261.609C148.406 245.272 156.482 223.964 168.262 212.493C177.805 204.384 192.177 202.206 203.139 209.201Z" fill="#413D3E"/>
<path d="M172.648 235.367C176.022 232.275 184.831 232.204 188.814 232.556C189.4 247.785 190.149 278.242 188.462 278.242C186.354 278.242 185.3 281.756 175.811 282.459C166.322 283.162 162.105 276.485 161.754 275.782C161.402 275.079 160.348 272.268 164.214 271.916C168.079 271.565 168.079 273.673 173.702 275.079C178.201 276.204 182.371 273.439 183.894 271.916L184.597 261.725C184.245 261.959 181.996 261.162 175.811 256.102C169.626 251.041 168.314 244.856 168.431 242.396C168.431 241.342 169.274 238.46 172.648 235.367Z" fill="#040603" stroke="#040603"/>
<path d="M202.1 235.367C198.727 232.275 189.917 232.204 185.935 232.556C185.349 247.785 184.599 278.242 186.286 278.242C188.395 278.242 189.449 281.756 198.938 282.459C208.426 283.162 212.643 276.485 212.995 275.782C213.346 275.079 214.4 272.268 210.535 271.916C206.669 271.565 206.669 273.673 201.046 275.079C196.548 276.204 192.377 273.439 190.855 271.916L190.152 261.725C190.503 261.959 192.752 261.162 198.938 256.102C205.123 251.041 206.435 244.856 206.318 242.396C206.318 241.342 205.474 238.46 202.1 235.367Z" fill="#040603" stroke="#040603"/>
<path d="M119.225 119.875C117.87 117.68 117.676 116.578 117.939 113.954L108.603 110.064C108.825 113.504 109.297 115.884 107.384 118.859C105.592 121.423 105.739 123.546 106.077 126.58C106.51 128.007 106.755 129 106.555 130.488L106.2 131.857C105.947 132.89 105.688 133.921 105.424 134.951C104.517 138.455 103.84 141.181 104.771 144.785C106.167 144.81 107.563 144.833 108.96 144.848L110.691 144.866C114.66 144.944 117.986 144.778 121.756 143.484C121.892 141.429 121.669 139.903 121.139 137.892C119.91 133.728 118.735 130.267 119.797 125.93C120.464 123.383 120.502 122.202 119.225 119.875Z" fill="#E7B91E"/>
<path d="M202.433 68.985C201.082 68.3907 199.732 67.7948 198.383 67.1971C193.234 64.8599 189.246 62.5981 183.745 65.0789C181.835 66.0183 179.943 66.9468 177.983 67.7793L175.987 68.5838L173.921 69.4185C172.433 70.0159 170.945 70.6146 169.458 71.2144L167.084 72.1724C163.946 73.436 160.811 74.7037 157.677 75.9769C146.706 80.436 135.715 84.8423 124.69 89.1691L122.275 90.1156C117.762 91.8845 113.248 93.6435 108.692 95.2998C103.928 97.0283 99.4721 99.0352 95 101.412L95.0791 102.934C95.6533 104.663 95.6533 104.663 97.3911 105.6L118.518 114.416C120.257 114.976 121.988 115.547 123.698 116.189C128.859 118.168 132.721 119.011 137.752 119.93C137.778 123.679 137.743 124.002 137.713 128.611L137.752 130.617C137.755 132.022 137.76 133.428 137.766 134.834C137.799 137.047 137.831 139.26 137.839 141.473C137.841 142.921 137.847 144.369 137.857 145.817L137.875 147.887L137.885 149.904L137.917 151.766C137.948 154.215 140.853 155.3 143.22 154.666C143.66 154.548 144.114 154.393 144.619 154.188C145.332 153.899 146.057 153.624 146.801 153.431C153.163 151.785 153.498 151.919 159.477 150.523L160.982 150.175C175.028 147.222 185.95 147.163 198.683 147.777L200.22 147.859C202.518 147.981 204.426 148.197 207.054 148.527L208.672 148.875C215.205 149.823 220.758 150.798 226.964 152.423C231.211 153.399 234.477 154.049 238.397 154.699C238.724 154.699 238.798 154.743 238.802 153.99L238.798 152.14L238.798 150.049L238.787 147.775C238.784 145.385 238.781 142.995 238.773 140.605C238.767 138.938 238.763 137.271 238.759 135.604C238.752 131.143 238.742 126.682 238.728 122.221L238.724 120.917C241.187 120.336 243.574 119.748 245.963 118.916L247.887 118.154L250.086 117.29C251.661 116.662 253.238 116.035 254.815 115.411C256.053 114.921 257.292 114.43 258.529 113.938C260.559 113.131 262.59 112.33 264.625 111.536C266.14 110.948 267.654 110.358 269.167 109.767L271.306 108.93C275.316 107.383 279.03 105.928 282.494 103.363C282.466 102.182 282.466 102.182 281.841 100.762C279.766 99.7691 279.766 99.7691 278.45 99.3056C277.552 99.0119 276.655 98.7126 275.761 98.4066L274.417 97.9405C272.135 97.1504 269.908 96.2671 267.68 95.3373C264.098 93.8345 260.498 92.3823 256.888 90.9472C255.663 90.4615 254.439 89.9758 253.215 89.4894C250.127 88.2616 247.039 87.0347 243.95 85.8082C230.798 80.5864 217.544 75.5495 204.562 69.9222L202.433 68.985Z" fill="#05283C"/>
<path d="M238.792 122.305L238.788 121.002C231.595 119.166 215.73 115.201 209.817 114.022C202.426 112.549 193.479 111.62 178.047 111.62C165.702 111.62 146.083 117.216 137.816 120.014C137.842 123.763 137.807 124.086 137.778 128.695L137.816 130.701C137.82 132.107 137.824 133.512 137.831 134.918C137.864 137.131 137.896 139.344 137.903 141.557C137.906 143.005 137.912 144.453 137.921 145.901L137.939 147.971L137.95 149.988L137.981 151.85C138.013 154.299 140.918 155.384 143.284 154.75C143.724 154.632 144.178 154.477 144.684 154.272C145.397 153.983 146.121 153.708 146.866 153.515C153.227 151.869 153.563 152.003 159.541 150.607L161.047 150.259C175.092 147.306 186.014 147.247 198.748 147.861L200.285 147.943C202.582 148.066 204.49 148.281 207.119 148.611L208.737 148.959C215.27 149.907 220.822 150.882 227.029 152.507C231.275 153.483 234.542 154.133 238.461 154.783C238.788 154.783 238.862 154.827 238.866 154.074L238.862 152.224L238.862 150.133L238.852 147.859C238.849 145.469 238.845 143.079 238.837 140.689C238.832 139.022 238.827 137.355 238.824 135.688C238.817 131.227 238.807 126.766 238.792 122.305Z" fill="#051B28"/>
</g>
<rect x="9" y="9" width="358" height="358" rx="179" stroke="#34814B" stroke-width="18"/>
<defs>
<linearGradient id="paint0_linear_57_983" x1="95.5" y1="149" x2="95.5" y2="536" gradientUnits="userSpaceOnUse">
<stop stop-color="#74533E"/>
<stop offset="1" stop-color="#74533E"/>
</linearGradient>
<linearGradient id="paint1_linear_57_983" x1="281.5" y1="149" x2="281.5" y2="536" gradientUnits="userSpaceOnUse">
<stop stop-color="#74533E"/>
<stop offset="1" stop-color="#74533E"/>
</linearGradient>
<clipPath id="clip0_57_983">
<rect width="376" height="376" rx="188" fill="white"/>
</clipPath>
</defs>
</svg>